<?xml version="1.0" encoding="utf-8"?>
<!-- Generator: Adobe Illustrator 24.2.0, SVG Export Plug-In . SVG Version: 6.00 Build 0)  -->
<svg version="1.1" id="Layer_1" xmlns="http://www.w3.org/2000/svg" xmlns:xlink="http://www.w3.org/1999/xlink" x="0px" y="0px"
	 viewBox="0 0 277.7 413.7" style="enable-background:new 0 0 277.7 413.7;" xml:space="preserve">
<g id="Layer_2_1_">
	<g id="Art">
		<g id="symbol-black">
			<g>
				<g>
					<g>
						<g>
							<path d="M272.2,277.7H140.4l0,0c76.7-0.9,138.1-63.7,137.2-140.4S213.9-0.9,137.3,0S-0.9,63.8,0,140.4
								c0.9,75.4,61.8,136.4,137.2,137.2l0,0c0,74.7,60.3,135.4,135,136c0.6,0,1-0.4,1-1v-134C273.2,278.1,272.8,277.7,272.2,277.7
								 M90.9,138.7c0-25.6,20.7-46.3,46.3-46.3s46.3,20.7,46.3,46.3S162.8,185,137.3,185c0,0,0,0,0,0
								C111.7,185,90.9,164.3,90.9,138.7C90.9,138.7,90.9,138.7,90.9,138.7"/>
						</g>
					</g>
				</g>
			</g>
		</g>
	</g>
</g>
</svg>
